<svg width="2402" height="810" viewBox="0 0 2402 810" fill="none" xmlns="http://www.w3.org/2000/svg">
<path d="M508.434 17.5C661.154 161.735 765.655 187.775 971.739 177.028C772.117 321.915 681.804 419.68 584.49 642.83" stroke="white" stroke-width="35" stroke-linecap="round"/>
<path d="M184.434 114.5C337.153 258.735 441.655 284.775 647.738 274.028C448.117 418.915 357.803 516.68 260.49 739.83" stroke="white" stroke-width="35" stroke-linecap="round"/>
<path d="M1087.36 579.5V566.805C1098.43 566.805 1106.08 565.34 1110.31 562.41C1114.54 559.48 1116.66 554.435 1116.66 547.273V282.625C1116.66 273.51 1114.54 267.651 1110.31 265.047C1106.08 262.443 1098.43 261.141 1087.36 261.141V248.445H1194.79V261.141C1183.72 261.141 1176.07 262.443 1171.84 265.047C1167.6 267.651 1165.49 273.51 1165.49 282.625V390.047H1296.35V282.625C1296.35 273.51 1294.23 267.651 1290 265.047C1285.77 262.443 1278.12 261.141 1267.05 261.141V248.445H1374.47V261.141C1363.4 261.141 1355.59 262.443 1351.04 265.047C1347.13 267.326 1345.09 272.127 1344.93 279.451C1344.93 280.428 1345.01 281.486 1345.18 282.625V547.273C1345.18 554.435 1347.29 559.48 1351.52 562.41C1355.76 565.34 1363.4 566.805 1374.47 566.805V579.5H1267.05V566.805C1278.12 566.805 1285.77 565.34 1290 562.41C1294.23 559.48 1296.35 554.435 1296.35 547.273V414.461H1165.49V547.273C1165.49 554.435 1167.6 559.48 1171.84 562.41C1176.07 565.34 1183.72 566.805 1194.79 566.805V579.5H1087.36ZM1389.12 579.5V566.805L1541.46 413.484L1389.12 261.141V248.445H1647.91V306.062H1635.21C1634.56 294.995 1631.96 286.694 1627.4 281.16C1622.85 275.626 1614.06 272.859 1601.04 272.859H1469.2L1594.2 397.859L1461.39 530.672H1595.18C1609.5 530.672 1619.75 527.579 1625.94 521.395C1632.12 515.21 1635.21 506.909 1635.21 496.492H1647.91V579.5H1389.12ZM1672.32 579.5V566.805C1683.39 566.805 1691.04 565.34 1695.27 562.41C1699.51 559.48 1701.62 554.435 1701.62 547.273V282.625C1701.62 273.51 1699.51 267.651 1695.27 265.047C1691.04 262.443 1683.39 261.141 1672.32 261.141V248.445H1779.75C1812.95 248.445 1840.29 254.142 1861.78 265.535C1883.26 276.928 1894 300.854 1894 337.312C1894 370.516 1885.54 393.79 1868.61 407.137C1852.5 419.832 1838.67 426.18 1827.11 426.18C1826.62 426.18 1826.13 426.18 1825.64 426.18L1867.64 480.867L1899.86 437.898H1927.21L1881.31 500.398L1922.32 549.227C1928.83 555.086 1934.37 559.318 1938.93 561.922C1943.48 564.526 1950.64 566.154 1960.41 566.805V579.5H1855.92V566.805C1865.03 566.805 1871.05 565.177 1873.98 561.922C1875.12 560.62 1875.69 559.074 1875.69 557.283C1875.69 554.516 1874.31 551.18 1871.54 547.273L1858.85 528.719L1822.71 579.5H1799.28L1844.2 513.094L1776.82 426.18H1750.45V547.273C1750.45 554.435 1752.57 559.48 1756.8 562.41C1761.03 565.34 1768.68 566.805 1779.75 566.805V579.5H1672.32ZM1750.45 401.766H1793.42C1812.3 401.766 1825.48 396.557 1832.97 386.141C1840.46 375.724 1844.2 357.495 1844.2 331.453C1844.2 307.365 1839.48 291.577 1830.04 284.09C1820.6 276.603 1804.81 272.859 1782.68 272.859H1750.45V401.766ZM1971.15 579.5V566.805C1982.22 566.805 1989.87 565.34 1994.1 562.41C1998.33 559.48 2000.45 554.435 2000.45 547.273V282.625C2000.45 273.51 1998.33 267.651 1994.1 265.047C1989.87 262.443 1982.22 261.141 1971.15 261.141V248.445H2038.54L2166.46 453.523L2292.44 248.445H2367.64V261.141C2356.57 261.141 2348.92 262.443 2344.69 265.047C2340.46 267.651 2338.34 273.51 2338.34 282.625V547.273C2338.34 554.435 2340.46 559.48 2344.69 562.41C2348.92 565.34 2356.57 566.805 2367.64 566.805V579.5H2260.21V566.805C2271.28 566.805 2278.93 565.34 2283.16 562.41C2287.4 559.48 2289.51 554.435 2289.51 547.273V295.32L2179.16 473.055L2156.7 510.164L2024.86 295.32V547.273C2024.86 554.435 2026.98 559.48 2031.21 562.41C2035.44 565.34 2043.09 566.805 2054.16 566.805V579.5H1971.15Z" fill="white"/>
</svg>
